<mxfile host="app.diagrams.net" modified="2024-06-03T09:36:32.465Z" agent="Mozilla/5.0 (Windows NT 10.0; Win64; x64) AppleWebKit/537.36 (KHTML, like Gecko) Chrome/124.0.0.0 Safari/537.36" etag="b7419WRTbJEPCHoRlcQr" version="24.4.13" type="github">
  <diagram name="第 1 页" id="Rs18dI2a3HygZKJYflAT">
    <mxGraphModel dx="794" dy="458" grid="1" gridSize="10" guides="1" tooltips="1" connect="1" arrows="1" fold="1" page="1" pageScale="1" pageWidth="827" pageHeight="1169" math="0" shadow="0">
      <root>
        <mxCell id="0" />
        <mxCell id="1" parent="0" />
        <mxCell id="CMubnNj333F3mV1wrqiR-1" value="windows" style="rounded=0;whiteSpace=wrap;html=1;verticalAlign=top;" vertex="1" parent="1">
          <mxGeometry x="40" y="60" width="230" height="210" as="geometry" />
        </mxCell>
        <mxCell id="CMubnNj333F3mV1wrqiR-2" value="VMware WorkStation" style="rounded=0;whiteSpace=wrap;html=1;verticalAlign=top;" vertex="1" parent="1">
          <mxGeometry x="40" y="120" width="230" height="150" as="geometry" />
        </mxCell>
        <mxCell id="CMubnNj333F3mV1wrqiR-3" value="Ubuntu" style="rounded=0;whiteSpace=wrap;html=1;verticalAlign=top;" vertex="1" parent="1">
          <mxGeometry x="40" y="165" width="230" height="105" as="geometry" />
        </mxCell>
        <mxCell id="CMubnNj333F3mV1wrqiR-4" value="immich" style="rounded=0;whiteSpace=wrap;html=1;" vertex="1" parent="1">
          <mxGeometry x="40" y="210" width="190" height="60" as="geometry" />
        </mxCell>
        <mxCell id="CMubnNj333F3mV1wrqiR-16" style="edgeStyle=orthogonalEdgeStyle;rounded=0;orthogonalLoop=1;jettySize=auto;html=1;entryX=0.5;entryY=1;entryDx=0;entryDy=0;" edge="1" parent="1" source="CMubnNj333F3mV1wrqiR-14" target="CMubnNj333F3mV1wrqiR-4">
          <mxGeometry relative="1" as="geometry" />
        </mxCell>
        <mxCell id="CMubnNj333F3mV1wrqiR-14" value="IPhone/Android Phone" style="rounded=0;whiteSpace=wrap;html=1;verticalAlign=top;" vertex="1" parent="1">
          <mxGeometry x="40" y="370" width="190" height="90" as="geometry" />
        </mxCell>
        <mxCell id="CMubnNj333F3mV1wrqiR-15" value="immich app" style="rounded=0;whiteSpace=wrap;html=1;" vertex="1" parent="1">
          <mxGeometry x="75" y="400" width="120" height="60" as="geometry" />
        </mxCell>
        <mxCell id="CMubnNj333F3mV1wrqiR-18" style="edgeStyle=orthogonalEdgeStyle;rounded=0;orthogonalLoop=1;jettySize=auto;html=1;exitX=0.5;exitY=0;exitDx=0;exitDy=0;entryX=0.5;entryY=1;entryDx=0;entryDy=0;" edge="1" parent="1" source="CMubnNj333F3mV1wrqiR-17" target="CMubnNj333F3mV1wrqiR-4">
          <mxGeometry relative="1" as="geometry" />
        </mxCell>
        <mxCell id="CMubnNj333F3mV1wrqiR-17" value="浏览器" style="rounded=0;whiteSpace=wrap;html=1;" vertex="1" parent="1">
          <mxGeometry x="280" y="385" width="120" height="60" as="geometry" />
        </mxCell>
      </root>
    </mxGraphModel>
  </diagram>
</mxfile>
